<svg width="103" height="80" viewBox="0 0 103 80" fill="none" xmlns="http://www.w3.org/2000/svg">
<g filter="url(#filter0_i_115_22)">
<path d="M102.245 10.8448C101.819 8.69195 100.859 6.65724 99.4572 4.94664C99.1726 4.5875 98.8749 4.268 98.5494 3.9439C96.0563 1.43755 92.5882 0 89.0343 0H13.4614C9.86785 0 6.48808 1.40131 3.9447 3.9453C3.6228 4.2664 3.32432 4.5891 3.02884 4.95965C1.63353 6.66305 0.677235 8.69495 0.261445 10.8508C0.0876822 11.6974 0 12.5746 0 13.462V66.5392C0 68.3857 0.375152 70.1838 1.11885 71.8932C1.76245 73.4112 2.73897 74.8504 3.9439 76.0547C4.24738 76.3568 4.54886 76.6355 4.87077 76.9071C7.27983 78.9022 10.3303 80 13.4614 80H89.0343C92.1856 80 95.2331 78.898 97.6357 76.8851C97.9568 76.6252 98.2545 76.3524 98.5522 76.0547C99.7169 74.8912 100.643 73.5544 101.308 72.0802L101.396 71.87C102.126 70.193 102.496 68.4007 102.496 66.5394V13.462C102.496 12.5862 102.412 11.7032 102.245 10.8448ZM6.97114 8.59125C7.16151 8.31259 7.40454 8.02653 7.71463 7.71403C9.25388 6.17559 11.2952 5.329 13.4612 5.329H89.0341C91.2191 5.329 93.261 6.17699 94.7833 7.71703C95.0461 7.98268 95.2971 8.27756 95.5162 8.57224L96.0941 9.34896L55.7563 44.5051C54.5127 45.5953 52.9116 46.1953 51.2474 46.1953C49.5997 46.1953 48 45.5967 46.7416 44.5065L6.44404 9.35898L6.97114 8.59125ZM5.35602 67.0078C5.3342 66.8633 5.3292 66.7027 5.3292 66.5392V14.5611L36.6325 41.8689L5.64509 68.8864L5.35602 67.0078ZM93.0671 73.5994C91.8555 74.2985 90.4602 74.6692 89.0343 74.6692H13.4614C12.0347 74.6692 10.64 74.2985 9.42924 73.5994L8.16245 72.8651L40.1797 44.9632L43.6886 48.0152C45.7933 49.8425 48.4774 50.8499 51.2478 50.8499C54.0285 50.8499 56.717 49.8425 58.8203 48.0152L62.3278 44.9618L94.334 72.8667L93.0671 73.5994ZM97.1655 66.5392C97.1655 66.6999 97.1625 66.8589 97.1423 67.0004L96.8648 68.8966L65.8642 41.8835L97.1655 14.5743V66.5392Z" fill="#EEB600"/>
</g>
<path d="M99.0654 5.25723L99.0654 5.25727L99.0705 5.26349C100.42 6.91038 101.344 8.86912 101.754 10.9403C101.915 11.7671 101.996 12.6181 101.996 13.462V66.5394C101.996 68.3332 101.639 70.0574 100.937 71.6704L100.937 71.6704L100.934 71.6775L100.849 71.8808C100.209 73.2967 99.3196 74.5814 98.1988 75.701L98.1987 75.7011C97.911 75.9888 97.6264 76.2495 97.3212 76.4964L97.3212 76.4964L97.3146 76.5018C95.0027 78.4387 92.0692 79.5 89.0343 79.5H13.4614C10.4474 79.5 7.51061 78.4433 5.19171 76.5237C4.88201 76.2623 4.59116 75.9935 4.29689 75.7006C3.1362 74.5404 2.19681 73.1548 1.5792 71.698L1.57734 71.6937C0.860818 70.0468 0.5 68.3166 0.5 66.5392V13.462C0.5 12.6074 0.584458 11.7639 0.751235 10.9513L0.75127 10.9513L0.752397 10.9455C1.15234 8.87182 2.07255 6.91613 3.41564 5.27649L3.41567 5.27652L3.41977 5.27138C3.70056 4.91925 3.98556 4.61077 4.29781 4.29929L4.29829 4.29881C6.74804 1.84849 10.0007 0.5 13.4614 0.5H89.0343C92.4559 0.5 95.7962 1.88506 98.1949 4.29652L98.1966 4.29821C98.5136 4.61383 98.7968 4.91836 99.0654 5.25723ZM7.36117 7.36039L7.35972 7.36185C7.03486 7.68922 6.77052 7.9986 6.55851 8.30887C6.55843 8.30898 6.55836 8.30909 6.55829 8.3092L6.03184 9.07597L5.77979 9.44308L6.11539 9.73579L46.413 44.8833L46.4142 44.8844C47.7627 46.0527 49.4784 46.6953 51.2474 46.6953C53.0316 46.6953 54.7498 46.0521 56.0851 44.8818C56.0854 44.8815 56.0856 44.8813 56.0859 44.8811L96.4226 9.7259L96.7715 9.42181L96.4952 9.05049L95.9174 8.27398C95.9174 8.27391 95.9173 8.27384 95.9173 8.27376C95.6851 7.96141 95.419 7.64869 95.1389 7.36554C93.5217 5.72948 91.3513 4.829 89.0341 4.829H13.4612C11.1621 4.829 8.99378 5.72862 7.36117 7.36039ZM4.86162 67.0825L4.86184 67.0839L5.15091 68.9624L5.28905 69.8602L5.97368 69.2633L36.9611 42.2457L37.3933 41.869L36.9612 41.4921L5.65789 14.1843L4.8292 13.4614V14.5611V66.5392C4.8292 66.7088 4.83404 66.8997 4.86162 67.0825ZM93.3169 74.0325L93.3174 74.0322L94.5843 73.2996L95.1898 72.9494L94.6626 72.4898L62.6564 44.5849L62.3281 44.2986L61.9995 44.5846L58.4924 47.6378C56.4797 49.3863 53.9075 50.3499 51.2478 50.3499C48.5989 50.3499 46.0309 49.3866 44.0163 47.6377L40.5078 44.5859L40.1794 44.3002L39.8512 44.5862L7.83396 72.4882L7.30715 72.9473L7.91171 73.2977L9.17849 74.032L9.17923 74.0324C10.4674 74.7762 11.9485 75.1692 13.4614 75.1692H89.0343C90.5464 75.1692 92.0281 74.7762 93.3169 74.0325ZM97.637 67.0728L97.6372 67.0712C97.663 66.891 97.6655 66.7005 97.6655 66.5392V14.5743V13.4745L96.8368 14.1975L65.5354 41.5067L65.1033 41.8837L65.5357 42.2604L96.5363 69.2736L97.2269 69.8753L97.3595 68.969L97.637 67.0728Z" stroke="white" stroke-opacity="0.34"/>
<defs>
<filter id="filter0_i_115_22" x="0" y="0" width="102.496" height="83" filterUnits="userSpaceOnUse" color-interpolation-filters="sRGB">
<feFlood flood-opacity="0" result="BackgroundImageFix"/>
<feBlend mode="normal" in="SourceGraphic" in2="BackgroundImageFix" result="shape"/>
<feColorMatrix in="SourceAlpha" type="matrix" values="0 0 0 0 0 0 0 0 0 0 0 0 0 0 0 0 0 0 127 0" result="hardAlpha"/>
<feOffset dy="3"/>
<feGaussianBlur stdDeviation="2.15"/>
<feComposite in2="hardAlpha" operator="arithmetic" k2="-1" k3="1"/>
<feColorMatrix type="matrix" values="0 0 0 0 0 0 0 0 0 0 0 0 0 0 0 0 0 0 1 0"/>
<feBlend mode="normal" in2="shape" result="effect1_innerShadow_115_22"/>
</filter>
</defs>
</svg>
