<svg width="80" height="80" viewBox="0 0 80 80" fill="none" xmlns="http://www.w3.org/2000/svg">
<g filter="url(#filter0_i_115_17)">
<path fill-rule="evenodd" clip-rule="evenodd" d="M40 0C62.092 0 80 18.3597 80 41.0117C80 59.1277 68.552 74.4958 52.668 79.9238C50.64 80.3278 49.92 79.0471 49.92 77.9551C49.92 76.6031 49.968 72.1872 49.968 66.6992C49.968 62.8752 48.688 60.3794 47.252 59.1074C56.16 58.0914 65.52 54.6231 65.52 38.8711C65.52 34.3911 63.968 30.7353 61.4 27.8633C61.816 26.8273 63.188 22.6558 61.008 17.0078C61.008 17.0078 57.656 15.9089 50.02 21.2129C46.824 20.3049 43.4 19.848 40 19.832C36.6 19.848 33.18 20.3049 29.988 21.2129C22.344 15.9089 18.984 17.0078 18.984 17.0078C16.812 22.6558 18.184 26.8273 18.596 27.8633C16.04 30.7353 14.476 34.3911 14.476 38.8711C14.476 54.5831 23.816 58.1046 32.7 59.1406C31.556 60.1646 30.52 61.971 30.16 64.623C27.88 65.671 22.088 67.4848 18.52 61.2168C18.52 61.2168 16.404 57.2763 12.388 56.9883C12.388 56.9883 8.488 56.9365 12.116 59.4805C12.116 59.4805 14.736 60.7405 16.556 65.4805C16.556 65.4805 18.904 72.8003 30.032 70.3203C30.052 73.7483 30.088 76.9791 30.088 77.9551C30.088 79.0391 29.352 80.3077 27.356 79.9277C11.46 74.5077 0 59.1317 0 41.0117C0 18.3597 17.912 0 40 0Z" fill="#EEB600"/>
</g>
<path d="M12.388 56.9883C12.3946 56.4883 12.3945 56.4883 12.3943 56.4883L12.3938 56.4883L12.3927 56.4883L12.3893 56.4883L12.3783 56.4882L12.3407 56.4883C12.309 56.4886 12.2644 56.4894 12.2097 56.4913C12.1007 56.4952 11.9493 56.5039 11.7792 56.5231C11.4589 56.5593 10.9955 56.6403 10.639 56.8488C10.4547 56.9566 10.2555 57.1237 10.1474 57.3788C10.0335 57.6476 10.0536 57.9349 10.1653 58.2074C10.3693 58.7055 10.9164 59.25 11.8289 59.8899L11.8624 59.9133L11.897 59.9299L11.8977 59.9303L11.8984 59.9306L11.8988 59.9308L11.8993 59.9311L11.9121 59.9378C11.9259 59.9451 11.9491 59.9577 11.9809 59.9761C12.0443 60.013 12.1417 60.0731 12.2667 60.1608C12.5166 60.336 12.8768 60.6215 13.295 61.0516C14.129 61.9091 15.2003 63.3486 16.0854 65.6497L16.0907 65.6654C16.0969 65.683 16.1055 65.7074 16.117 65.7379C16.14 65.799 16.1741 65.885 16.221 65.9915C16.3147 66.2045 16.4598 66.5006 16.6696 66.8454C17.089 67.5345 17.7692 68.4222 18.8163 69.2269C20.8534 70.7922 24.2035 71.9868 29.5358 70.9355C29.5456 72.4725 29.558 73.9416 29.5683 75.1548C29.5794 76.4664 29.588 77.4789 29.588 77.9551C29.588 78.396 29.437 78.8373 29.1291 79.1251C28.842 79.3935 28.3425 79.5988 27.4831 79.4428C11.8077 74.0816 0.5 58.9051 0.5 41.0117C0.5 18.6241 18.1998 0.5 40 0.5C61.8042 0.5 79.5 18.624 79.5 41.0117C79.5 58.902 68.2032 74.0711 52.5385 79.4397C51.6605 79.6074 51.1597 79.402 50.8754 79.1356C50.5694 78.8489 50.42 78.4042 50.42 77.9551C50.42 77.5082 50.4253 76.7252 50.4323 75.6764C50.4359 75.1435 50.4399 74.5421 50.444 73.8812C50.456 71.9217 50.468 69.4446 50.468 66.6992C50.468 63.3852 49.532 60.9846 48.2997 59.4809C52.4756 58.9155 56.7451 57.7321 60.0521 54.8947C63.6437 51.8131 66.02 46.8524 66.02 38.8711C66.02 34.383 64.5015 30.6852 61.974 27.7591C62.4943 26.3073 63.5521 22.2105 61.4745 16.8278L61.3891 16.6066L61.1638 16.5327L61.008 17.0078C61.1638 16.5327 61.1633 16.5325 61.1627 16.5324L61.1617 16.532L61.1592 16.5312L61.1535 16.5294L61.1381 16.5248C61.1262 16.5213 61.111 16.5171 61.0923 16.5124C61.0551 16.5028 61.0043 16.4912 60.9399 16.4793C60.811 16.4555 60.6276 16.4306 60.3881 16.4195C59.9089 16.3972 59.2079 16.4299 58.2716 16.6327C56.4316 17.0312 53.6873 18.086 49.9289 20.6681C46.7517 19.7893 43.364 19.3479 40.0024 19.332L39.9976 19.332C36.6361 19.3479 33.2522 19.7892 30.0788 20.6681C26.3164 18.0859 23.5681 17.0312 21.7252 16.6326C20.7875 16.4299 20.0853 16.3973 19.6053 16.4195C19.3654 16.4306 19.1818 16.4554 19.0527 16.4792C18.9881 16.4911 18.9373 16.5028 18.9 16.5123C18.8814 16.517 18.8661 16.5213 18.8542 16.5247L18.8389 16.5293L18.8331 16.5311L18.8307 16.5319L18.8296 16.5323C18.8291 16.5324 18.8286 16.5326 18.984 17.0078L18.8286 16.5326L18.6026 16.6065L18.5173 16.8283C16.4467 22.2127 17.5066 26.3099 18.0228 27.7591C15.5067 30.6843 13.976 34.3818 13.976 38.8711C13.976 46.8326 16.3473 51.7957 19.9298 54.8879C23.2306 57.7369 27.4926 58.937 31.6604 59.5125C30.7636 60.6171 30.0292 62.2032 29.705 64.2785C28.5731 64.7682 26.7765 65.3398 24.8685 65.1655C22.8529 64.9814 20.6594 63.9619 18.9569 60.9736L18.9514 60.9636C18.9463 60.9543 18.939 60.9414 18.9297 60.925C18.9111 60.8923 18.8841 60.8459 18.8487 60.7876C18.7781 60.6711 18.6739 60.507 18.5366 60.3103C18.2624 59.9177 17.8534 59.3916 17.3118 58.8553C16.2328 57.7866 14.594 56.6452 12.4238 56.4896L12.4092 56.4885L12.3946 56.4883L12.388 56.9883Z" stroke="white" stroke-opacity="0.18"/>
<defs>
<filter id="filter0_i_115_17" x="0" y="0" width="80" height="82.7" filterUnits="userSpaceOnUse" color-interpolation-filters="sRGB">
<feFlood flood-opacity="0" result="BackgroundImageFix"/>
<feBlend mode="normal" in="SourceGraphic" in2="BackgroundImageFix" result="shape"/>
<feColorMatrix in="SourceAlpha" type="matrix" values="0 0 0 0 0 0 0 0 0 0 0 0 0 0 0 0 0 0 127 0" result="hardAlpha"/>
<feOffset dy="3"/>
<feGaussianBlur stdDeviation="1.35"/>
<feComposite in2="hardAlpha" operator="arithmetic" k2="-1" k3="1"/>
<feColorMatrix type="matrix" values="0 0 0 0 0.203922 0 0 0 0 0.207843 0 0 0 0 0.227451 0 0 0 1 0"/>
<feBlend mode="normal" in2="shape" result="effect1_innerShadow_115_17"/>
</filter>
</defs>
</svg>
