<svg width="88" height="88" viewBox="0 0 88 88" fill="none" xmlns="http://www.w3.org/2000/svg">
<g filter="url(#filter0_i_106_112)">
<path d="M4 15.1111C4 53.1573 34.8426 84 72.8889 84C74.6053 84 76.3071 83.9373 77.9924 83.8138C79.9262 83.672 80.8929 83.6013 81.7733 83.0947C82.5022 82.6751 83.1933 81.9311 83.5587 81.1733C84 80.2587 84 79.1916 84 77.0578V64.5365C84 62.7418 84 61.8444 83.7044 61.0756C83.444 60.396 83.02 59.7911 82.4707 59.3138C81.8489 58.7733 81.0053 58.4667 79.3191 57.8533L65.0667 52.6707C63.1044 51.9573 62.1231 51.6004 61.1924 51.6609C60.3716 51.7142 59.5818 51.9947 58.9107 52.4702C58.1498 53.0093 57.6129 53.9044 56.5387 55.6951L52.8889 61.7778C41.1116 56.444 31.564 46.884 26.2222 35.1111L32.305 31.4614C34.0953 30.3872 34.9905 29.8501 35.5298 29.0892C36.0053 28.4181 36.2858 27.6283 36.3391 26.8076C36.3996 25.8768 36.0427 24.8957 35.3293 22.9336L30.1466 8.68093C29.5333 6.99449 29.2267 6.15124 28.6863 5.52933C28.2089 4.97996 27.604 4.55622 26.9245 4.29533C26.1554 4 25.2581 4 23.4636 4H10.9423C8.80836 4 7.74138 4 6.82658 4.44111C6.06889 4.80649 5.32507 5.49782 4.90533 6.2268C4.39858 7.10698 4.32778 8.07387 4.18618 10.0077C4.0628 11.6927 4 13.3946 4 15.1111Z" stroke="#EEB600" stroke-width="7" stroke-linecap="round" stroke-linejoin="round"/>
</g>
<defs>
<filter id="filter0_i_106_112" x="0.5" y="0.498047" width="87.0021" height="91.002" filterUnits="userSpaceOnUse" color-interpolation-filters="sRGB">
<feFlood flood-opacity="0" result="BackgroundImageFix"/>
<feBlend mode="normal" in="SourceGraphic" in2="BackgroundImageFix" result="shape"/>
<feColorMatrix in="SourceAlpha" type="matrix" values="0 0 0 0 0 0 0 0 0 0 0 0 0 0 0 0 0 0 127 0" result="hardAlpha"/>
<feOffset dy="4"/>
<feGaussianBlur stdDeviation="2.35"/>
<feComposite in2="hardAlpha" operator="arithmetic" k2="-1" k3="1"/>
<feColorMatrix type="matrix" values="0 0 0 0 0 0 0 0 0 0 0 0 0 0 0 0 0 0 1 0"/>
<feBlend mode="normal" in2="shape" result="effect1_innerShadow_106_112"/>
</filter>
</defs>
</svg>
